<svg xmlns="http://www.w3.org/2000/svg" data-name="Layer 2" viewBox="0 0 47.2 43.02">
  <g fill="currentColor" data-name="Layer 3">
    <path d="M23.6 43.017h7.652c0-8.808 7.14-15.949 15.949-15.949v-7.652c-13.034 0-23.6 10.566-23.6 23.6Z"/>
    <path d="M0 19.417v7.652c8.808 0 15.949 7.14 15.949 15.949h7.652c0-13.034-10.566-23.6-23.6-23.6ZM19.24 17.718a14.7 14.7 0 0 1 2.893 4.073 15 15 0 0 1 1.391 4.908h.152a15 15 0 0 1 1.391-4.908 14.96 14.96 0 0 1 6.974-6.974 15 15 0 0 1 4.908-1.391v-.152A14.895 14.895 0 0 1 23.675 0h-.152a14.895 14.895 0 0 1-13.274 13.274v.152a14.7 14.7 0 0 1 4.891 1.391 14.8 14.8 0 0 1 4.098 2.901Z"/>
  </g>
</svg>
