<svg xmlns="http://www.w3.org/2000/svg" viewBox="0.54 0.12 82.92 81.76">
  <path fill="currentColor" fill-rule="evenodd" d="M.666 51.019 44.793 6.892c9.04-9.029 23.683-9.029 32.717.005L56.835 27.571A80.06 80.06 0 0 1 .666 51.019m59.556-39.234a3.92 3.92 0 0 0 3.917-3.916 3.92 3.92 0 0 0-3.917-3.918 3.92 3.92 0 0 0-3.917 3.918 3.92 3.92 0 0 0 3.917 3.916M.54 9.54l34.147.005-17.071 17.071zm44.157 56.547L33.646 55.035l22.099.004zM83.46 53.324 70.079 66.705A51.81 51.81 0 0 1 33.728 81.88l28.558-28.559c5.85-5.843 15.327-5.843 21.174.003m-11.189 3.164a2.536 2.536 0 0 0 2.535-2.535 2.537 2.537 0 0 0-2.535-2.535 2.54 2.54 0 0 0-2.535 2.535 2.537 2.537 0 0 0 2.535 2.535"/>
</svg>
