<svg xmlns="http://www.w3.org/2000/svg" data-name="Layer 2" viewBox="0 0 41.52 44.47">
  <g fill="currentColor" data-name="Layer 3">
    <path d="m30.306 3.315-.02.02L26.952 0H14.564L3.355 11.21l.021.021L0 14.606v12.388l9.37 9.288V24.048L6.04 20.8 17.326 9.514l-.021-.022 3.452-3.452 11.287 11.287.02-.02 3.412 3.411-3.33 3.33v12.234l9.37-9.37V14.524z"/>
    <path d="m14.5 21.188 6.237-6.238 6.238 6.238-6.238 6.238zM13.411 42.555h14.655v1.912H13.411zM13.411 37.555h14.655v3.676H13.411zM13.411 29.394h14.655v6.838H13.411z"/>
  </g>
</svg>
