<svg xmlns="http://www.w3.org/2000/svg" viewBox="0.64 0.37 172.72 189.26">
  <path fill="currentColor" fill-rule="evenodd" d="M173.361 134.521 153.1 123.078l16.107-4.479-4.32-15.525-31.629 8.798-12.567-7.098v-19.92l12.41-7.165 31.707 8.495 4.17-15.564-16.142-4.325 20.148-11.632-8.058-13.959-20.148 11.633 4.324-16.142-15.564-4.17-8.494 31.705-12.379 7.147L95.058 60.71V46.42l23.212-23.212-11.394-11.393-11.818 11.818V.368H78.942v23.265L67.124 11.815 55.73 23.208 78.942 46.42v14.291L61.006 71.067l-12.338-6.969-8.801-31.632-15.524 4.32 4.48 16.104L8.562 41.448.639 55.477l20.262 11.444-16.108 4.478 4.32 15.525 31.63-8.797 12.567 7.098v19.918l-12.41 7.166-31.708-8.495-4.17 15.564 16.145 4.325L1.02 135.335l8.058 13.959 20.147-11.633-4.327 16.146 15.564 4.17 8.498-31.711 12.441-7.183 17.541 10.128v14.367L55.73 166.79l11.394 11.394 11.818-11.819v23.267h16.116v-23.267l11.818 11.819 11.394-11.394-23.212-23.212v-14.366l17.87-10.318 12.408 7.008 8.797 31.63 15.524-4.32-4.477-16.103 20.258 11.441zm-68.785-29.413L87 115.256l-17.575-10.148V84.814L87 74.667l17.576 10.147z"/>
</svg>
