<svg xmlns="http://www.w3.org/2000/svg" viewBox="0 0 180 180">
  <path fill="currentColor" fill-rule="evenodd" d="M161.543 144.602H83.144c-27.906 0-50.61-24.495-50.61-54.602h-13c0 37.276 28.535 67.602 63.61 67.602h66.263C133.557 171.542 112.767 180 90 180c-49.706 0-90-40.294-90-90 0-20.534 6.881-39.457 18.457-54.602h78.399c27.906 0 50.609 24.495 50.609 54.602h13c0-37.276-28.535-67.602-63.609-67.602H30.592C46.443 8.458 67.232 0 90 0c49.706 0 90 40.294 90 90 0 20.534-6.882 39.457-18.457 54.602M90 51.549 51.549 90 90 128.451 128.451 90zM70 90l20-20 19.1 20L90 109.1z"/>
</svg>
