<svg xmlns="http://www.w3.org/2000/svg" data-name="Layer 2" viewBox="0 0 43.92 35.86">
  <g fill="currentColor" data-name="Layer 3">
    <path d="M0 31.954h43.923v3.904H0zM37.999 30.457h-9.761v-7.826c0-3.833-2.816-6.951-6.277-6.951s-6.277 3.118-6.277 6.951v7.826h-9.76v-7.826c0-9.214 7.195-16.711 16.037-16.711s16.037 7.497 16.037 16.711v7.826Z"/>
    <path d="M43.923 30.457h-3.904v-8.496c0-9.957-8.1-18.057-18.057-18.057s-18.057 8.1-18.057 18.057v8.496H0v-8.496C0 9.852 9.852 0 21.962 0s21.961 9.852 21.961 21.961z"/>
  </g>
</svg>
