<svg xmlns="http://www.w3.org/2000/svg" viewBox="0.22 0.6 89.56 84.81">
  <path fill="currentColor" fill-rule="evenodd" d="M73.772 71.622v-7.813c4.519 0 8.197-3.677 8.197-8.202 0-4.356-3.418-7.931-7.714-8.179v.003a6 6 0 0 0-.481-.018H.219v-7.812h73.464q.044-.002.089-.003.06 0 .118.003h.365v.009c8.604.253 15.526 7.332 15.526 15.997 0 8.827-7.181 16.015-16.009 16.015m-6.535-39.013v.012H6.229v-7.813h60.527q.245 0 .481-.018c4.297-.246 7.716-3.822 7.716-8.178 0-4.525-3.678-8.203-8.197-8.203-4.525 0-8.203 3.678-8.203 8.203h-7.812c0-8.828 7.187-16.015 16.015-16.015s16.009 7.187 16.009 16.015c0 8.665-6.923 15.744-15.528 15.997M52.543 53.391c8.605.253 15.528 7.332 15.528 15.997 0 8.828-7.181 16.015-16.009 16.015s-16.015-7.187-16.015-16.015h7.812c0 4.525 3.678 8.203 8.203 8.203 4.519 0 8.197-3.678 8.197-8.203 0-4.356-3.419-7.932-7.716-8.179a6 6 0 0 0-.481-.017H6.229v-7.813h46.314z"/>
</svg>
