<svg xmlns="http://www.w3.org/2000/svg" data-name="Layer 2" viewBox="0 0 60 76">
  <g fill="currentColor" data-name="Layer 1">
    <path d="M44.118 0H33.53v11.529h-7.059V0H15.883L0 26v24l15.882 26H26.47V64.471h7.059V76h10.588l15.882-26V26zM54 46h-5.675C45.238 53.061 38.2 58 30 58s-15.237-4.939-18.325-12H6V30h5.675C14.762 22.939 21.8 18 30 18s15.237 4.939 18.325 12H54z"/>
    <path d="M46 35.219h-5.241c-1.236-4.795-5.577-8.342-10.759-8.342s-9.522 3.547-10.759 8.342H14v5.562h5.241c1.236 4.795 5.577 8.342 10.759 8.342s9.522-3.547 10.759-8.342H46z"/>
  </g>
</svg>
