<svg xmlns="http://www.w3.org/2000/svg" viewBox="0.93 0.93 84.14 84.14">
  <path fill="currentColor" fill-rule="evenodd" d="M73.937 85.068V43c0-17.058-13.878-30.937-30.937-30.937S12.063 25.942 12.063 43v42.068H.932V43C.932 19.804 19.803.932 43 .932S85.068 19.804 85.068 43v42.068zM42.952 37.456a4.78 4.78 0 0 1 4.78 4.781v7.878h-9.56v-7.878a4.78 4.78 0 0 1 4.78-4.781m-5.518 29.06H19.535V43.068c0-12.938 10.526-23.464 23.465-23.464 12.937 0 23.464 10.526 23.464 23.464v42H55.332v-42c0-6.8-5.533-12.333-12.332-12.333-6.801 0-12.334 5.533-12.334 12.333v12.317h17.066v29.683H19.471V73.937h17.963z"/>
</svg>
