<svg xmlns="http://www.w3.org/2000/svg" viewBox="51.7 59.9 152.75 144.25">
  <path fill="currentColor" d="m193.39 59.926 3.095.016q3.757.02 7.515.058.141 18.047.207 36.095.03 8.381.095 16.763.063 8.101.078 16.203.01 3.078.043 6.156c.115 11.308-.007 21.197-4.423 31.783l-1.145 2.753C192.35 184.558 179.702 194.897 165 201l-2.297.969c-6.65 2.287-13.149 2.175-20.094 2.105l-3.094-.016q-3.757-.02-7.515-.058a8736 8736 0 0 1-.207-36.095q-.03-8.382-.095-16.763-.063-8.102-.078-16.203a878 878 0 0 0-.043-6.156c-.115-11.308.007-21.197 4.423-31.783l1.145-2.753C143.65 79.442 156.298 69.103 171 63l2.297-.969c6.65-2.287 13.149-2.175 20.094-2.105M52 109q4.538-.043 9.074-.066c.85-.01 1.698-.018 2.573-.027 16.208-.067 30.564 5.674 42.291 16.833 10.15 10.14 17.993 23.666 18.29 38.3q-.002 2.792-.033 5.585l-.008 2.992c-.011 3.128-.036 6.255-.062 9.383q-.016 3.197-.027 6.395-.034 7.802-.098 15.605c-3.516.05-7.031.08-10.547.105l-2.995.043c-7.89.045-14.165-.984-21.458-4.148l-2.652-1.098C71.553 192.178 60.935 180.004 55 165c-2.449-7.421-3.423-14.125-3.293-21.918l.013-2.98c.016-3.096.054-6.193.093-9.29q.022-3.176.04-6.353c.033-5.153.085-10.306.147-15.459"/>
</svg>
