<svg xmlns="http://www.w3.org/2000/svg" viewBox="0.12 0.84 191.76 190.32">
  <path fill="currentColor" fill-rule="evenodd" d="M62.811 121.403c0-18.329 14.859-33.189 33.189-33.189s33.188 14.86 33.188 33.189S114.33 154.592 96 154.592s-33.189-14.859-33.189-33.189m40.564 69.755v-22.443c22.936-3.566 40.565-23.392 40.565-47.312 0-26.434-21.506-47.939-47.94-47.939s-47.94 21.505-47.94 47.939c0 23.92 17.629 43.745 40.564 47.312v22.443C39.122 187.388.121 146.057.121 95.59c0-47.936 35.18-87.652 81.128-94.748V15.83c-37.712 6.959-66.377 40.064-66.377 79.76 0 26.086 12.4 49.302 31.591 64.148-8.226-10.596-13.153-23.877-13.153-38.335 0-34.623 28.067-62.69 62.69-62.69s62.69 28.067 62.69 62.69c0 14.458-4.928 27.74-13.153 38.336 19.191-14.846 31.591-38.063 31.591-64.149 0-39.696-28.665-72.801-66.378-79.76V.842c45.949 7.096 81.129 46.812 81.129 94.748 0 50.467-39.001 91.798-88.504 95.568"/>
</svg>
