<svg xmlns="http://www.w3.org/2000/svg" data-name="Layer 2" viewBox="0 0 75.84 75.84">
  <path fill="currentColor" fill-rule="evenodd" d="M0 37.92C0 16.977 16.977 0 37.92 0s37.92 16.977 37.92 37.92-16.978 37.92-37.92 37.92S0 58.863 0 37.92m2.863-4.407 31.529 20.443L12.68 13.21c-5.273 5.382-8.838 12.441-9.817 20.303M55.33 7.169a35.2 35.2 0 0 0-17.398-4.571 35.2 35.2 0 0 0-16.853 4.267L38.44 18.1 55.33 7.17ZM73.089 34.28c-.803-7.839-4.172-14.917-9.252-20.386L42.355 54.207zm.153 5.107L38.568 61.769 2.597 38.55c.337 19.217 16.026 34.693 35.335 34.693 19.028 0 34.54-15.029 35.31-33.856" data-name="Layer 1"/>
</svg>
